<svg xmlns="http://www.w3.org/2000/svg" width="694" height="637" style="shape-rendering:geometricPrecision;text-rendering:geometricPrecision;image-rendering:optimizeQuality;fill-rule:evenodd;clip-rule:evenodd"><path style="opacity:1" d="M-.5-.5h694v637h-186v-619h-320v360h-110v30h110v90h-140v30h140v109H-.5V-.5z"/><path style="opacity:1" fill="#fefefe" d="M507.5 636.5h-320v-109h-140v-30h140v-90h-110v-30h110v-360h320v619z"/><path style="opacity:1" fill="#454645" d="M197.5 28.5c99.832-1 199.832-1.333 300-1v240h-90v30h-30v-1h29v-28h-29c0-.667-.333-1-1-1h-29v60h-30v-1h29v-28h-29c0-.667-.333-1-1-1h-29v30h-30v-1h29v-28h-29v-2h29v-28h-29v-2h29v-28h-29c0-.667-.333-1-1-1h-29v30h-30v-1h29v-28h-29v-2h29v-28h-29v-2h29v-28h-29v-2h29v-28h-29v-2h29v-28h-29v-2h29v-28h-29v-2h29v-28h-29v-2h29v-28h-29z"/><path style="opacity:1" d="M197.5 28.5h29v28h-29v-28zM227.5 28.5h29v28h-29v-28zM257.5 28.5h29v28h-29v-28zM287.5 28.5h29v28h-29v-28zM317.5 28.5h29v28h-29v-28zM347.5 28.5h29v28h-29v-28zM377.5 28.5h29v28h-29v-28zM407.5 28.5h29v28h-29v-28zM437.5 28.5h29v28h-29v-28zM467.5 28.5h29v28h-29v-28z"/><path style="opacity:1" fill="#f0f0f0" d="M542.5 54.5c-1.93 3.873-2.597 8.206-2 13h-3v-18c3 .333 4.667 2 5 5z"/><path style="opacity:1" fill="#efefef" d="M547.5 59.5c1.902-2.837 2.569-6.17 2-10h3v18h-3a23.138 23.138 0 0 0-2-8z"/><path style="opacity:1" fill="#f0f0f0" d="M587.5 49.5h3v5h3v3h-3v10h-3c.423-4.05-.244-7.884-2-11.5 1.503-1.921 2.169-4.088 2-6.5z"/><path style="opacity:1" fill="#f3f3f3" d="M604.5 49.5a43.123 43.123 0 0 1 13 1 7.298 7.298 0 0 1 2 3.5 27.242 27.242 0 0 0-2 5.5h-10v8h-3v-18z"/><path style="opacity:1" fill="#e1e1e1" d="M622.5 49.5h3v3h-3v-3z"/><path style="opacity:1" d="M607.5 52.5h9v4h-9v-4z"/><path style="opacity:1" fill="#f0f0f0" d="M77.5 54.5h3v7h9v-7h3v18h-3v-8h-9v8h-3v-18z"/><path style="opacity:1" fill="#eee" d="M110.5 54.5h3v18h-3v-18z"/><path style="opacity:1" fill="#ececec" d="M125.5 54.5h3v18c-11.817 2.197-15.483-2.136-11-13h8v-5z"/><path style="opacity:1" fill="#eee" d="M622.5 54.5h3v13h-3v-13z"/><path style="opacity:1" fill="#e7e7e7" d="M542.5 54.5c3 .333 4.667 2 5 5-.333-3-2-4.667-5-5zM575.5 59.5c-3-.333-4.667-2-5-5 3 .333 4.667 2 5 5z"/><path style="opacity:1" fill="#f0f0f0" d="M565.5 57.5h3v5a25.87 25.87 0 0 0-10 1 13.118 13.118 0 0 0 7 1v3c-3.288.427-6.288-.24-9-2l-1-4a53.646 53.646 0 0 1 2-7h8v3z"/><path style="opacity:1" d="M565.5 57.5c-.652 1.225-1.819 1.892-3.5 2l-3.5-1a13.118 13.118 0 0 1 7-1z"/><path style="opacity:1" fill="#d4d4d4" d="M575.5 62.5v-3c1.548-.321 2.215-1.321 2-3l6-2v3c-6.667 2.333-6.667 4.667 0 7v3l-6-2c.215-1.679-.452-2.679-2-3z"/><path style="opacity:1" fill="#f0f0f0" d="M637.5 57.5h3v5a25.87 25.87 0 0 0-10 1 13.118 13.118 0 0 0 7 1v3c-3.288.427-6.288-.24-9-2l-1-4a53.646 53.646 0 0 1 2-7h8v3z"/><path style="opacity:1" d="M637.5 57.5c-.652 1.225-1.819 1.892-3.5 2l-3.5-1a13.118 13.118 0 0 1 7-1z"/><path style="opacity:1" fill="#f0f0f0" d="M667.5 57.5h3v5a25.87 25.87 0 0 0-10 1 13.118 13.118 0 0 0 7 1v3c-3.288.427-6.288-.24-9-2l-1-4a53.646 53.646 0 0 1 2-7h8v3z"/><path style="opacity:1" d="M667.5 57.5c-.652 1.225-1.819 1.892-3.5 2l-3.5-1a13.118 13.118 0 0 1 7-1zM197.5 58.5h29v28h-29v-28zM227.5 58.5h29v28h-29v-28zM257.5 58.5h29v28h-29v-28zM287.5 58.5h29v28h-29v-28zM317.5 58.5h29v28h-29v-28zM347.5 58.5h29v28h-29v-28zM377.5 58.5h29v28h-29v-28zM407.5 58.5h29v28h-29v-28zM437.5 58.5h29v28h-29v-28zM467.5 58.5h29v28h-29v-28z"/><path style="opacity:1" fill="#efefef" d="M105.5 62.5h3v8c-11.667 4.333-15.333.667-11-11h8v3z"/><path style="opacity:1" d="M105.5 62.5v7h-7v-7h7zM118.5 62.5h7v7h-7v-7z"/><path style="opacity:1" fill="#e0e0e0" d="M644.5 54.5c3.847-.12 7.514.547 11 2v3c-3.158-1.376-6.491-2.042-10-2v7c3.509.042 6.842-.624 10-2v3c-11.698 4.302-15.364.636-11-11z"/><path style="opacity:1" fill="#e5e5e5" d="M575.5 62.5c-.333 3-2 4.667-5 5 .333-3 2-4.667 5-5z"/><path style="opacity:1" d="M197.5 88.5h29v28h-29v-28zM227.5 88.5h29v28h-29v-28zM257.5 88.5h29v28h-29v-28zM287.5 88.5h29v28h-29v-28zM317.5 88.5h29v28h-29v-28zM347.5 88.5h29v28h-29v-28zM377.5 88.5h29v28h-29v-28zM407.5 88.5h29v28h-29v-28zM437.5 88.5h29v28h-29v-28zM467.5 88.5h29v28h-29v-28z"/><path style="opacity:1" fill="#fefffe" d="M29.5 94.5h126v125h-126v-125zM544.5 95.5h126v125h-126v-125z"/><path style="opacity:1" fill="#7f7ffb" d="M61.5 97.5a817.019 817.019 0 0 0-4 5h-20v20a796.928 796.928 0 0 0-5 4v-29h29z"/><path style="opacity:1" fill="#3e3e3e" d="M62.5 98.5v-1h90v120c-40.17.332-80.17-.001-120-1h28v-28h-28v-2h28v-28h-28v-1h30v29c10 1.333 20 1.333 30 0h28v-28h-28v-2h28v-28h-28c0-.667-.333-1-1-1h-29v-1h28v-28h-28z"/><path style="opacity:1" fill="#3f3f3f" d="M547.5 98.5a3600.61 3600.61 0 0 1 120-1v120c-40.17.332-80.17-.001-120-1h28v-28h-28v-1a900.97 900.97 0 0 0 60-1h28v-28h-28v-2h28v-28h-28c0-.667-.333-1-1-1h-59v-1h28v-28h-28z"/><path style="opacity:1" d="M62.5 98.5h28v28h-28v-28zM91.5 98.5h29v28h-29v-28zM121.5 98.5h29v28h-29v-28zM547.5 98.5h28v28h-28v-28zM576.5 98.5h29v28h-29v-28zM606.5 98.5h29v28h-29v-28zM636.5 98.5h29v28h-29v-28z"/><path style="opacity:1" fill="#1211f3" d="M57.5 102.5v15h-20v-15h20z"/><path style="opacity:1" fill="#fbfb7f" d="M376.5 117.5a802.777 802.777 0 0 0-4 5h-20v20l-5 4v-29h29z"/><path style="opacity:1" d="M197.5 118.5h29v28h-29v-28zM227.5 118.5h29v28h-29v-28zM257.5 118.5h29v28h-29v-28zM287.5 118.5h29v28h-29v-28zM317.5 118.5h29v28h-29v-28zM377.5 118.5h29v28h-29v-28zM407.5 118.5h29v28h-29v-28zM437.5 118.5h29v28h-29v-28zM467.5 118.5h29v28h-29v-28z"/><path style="opacity:1" fill="#4342fc" d="M37.5 117.5h20v5h-20v-5z"/><path style="opacity:1" fill="#7f7ffb" d="M32.5 127.5c9.672-.166 19.34 0 29 .5-1.57 1.397-2.904 2.897-4 4.5h-20v20a796.928 796.928 0 0 0-5 4v-29z"/><path style="opacity:1" fill="#fb7f7f" d="M547.5 127.5h29a802.777 802.777 0 0 0-4 5h-20v20a802.777 802.777 0 0 0-5 4v-29z"/><path style="opacity:1" d="M92.5 128.5h28v28h-28v-28zM121.5 128.5h29v28h-29v-28zM607.5 128.5h28v28h-28v-28zM636.5 128.5h29v28h-29v-28z"/><path style="opacity:1" fill="#05049f" d="M61.5 97.5h1v30c-.166 9.672 0 19.339.5 29 1.397-1.57 2.897-2.904 4.5-4h20v-20a813.979 813.979 0 0 1 4-5c.667 0 1 .333 1 1v58c-10 1.333-20 1.333-30 0a796.928 796.928 0 0 1 5-4h20v-20c1.096-1.603 2.43-3.103 4-4.5-9.66-.5-19.328-.666-29-.5h-30v-1a796.928 796.928 0 0 1 5-4h20v-20c1.096-1.603 2.43-3.103 4-4.5-9.66-.5-19.328-.666-29-.5v-1a796.928 796.928 0 0 1 5-4h20v-20a817.019 817.019 0 0 1 4-5z"/><path style="opacity:1" fill="#7f7ffb" d="M62.5 127.5h29a813.979 813.979 0 0 0-4 5h-20v20c-1.603 1.096-3.103 2.43-4.5 4-.5-9.661-.666-19.328-.5-29z"/><path style="opacity:1" fill="#f5f521" d="M372.5 122.5v20h-20v-20h20z"/><path style="opacity:1" fill="#e90505" d="M572.5 132.5v13c-6.755.293-13.422-.04-20-1v-12h20z"/><path style="opacity:1" fill="#1211f3" d="M57.5 132.5v15h-20v-15h20zM87.5 132.5v15h-20v-15h20z"/><path style="opacity:1" fill="#fbfb7f" d="M347.5 147.5c9.672-.166 19.339 0 29 .5-1.57 1.397-2.904 2.897-4 4.5h-20v20l-5 4v-29z"/><path style="opacity:1" d="M197.5 148.5h29v28h-29v-28zM227.5 148.5h29v28h-29v-28zM257.5 148.5h29v28h-29v-28zM287.5 148.5h29v28h-29v-28zM317.5 148.5h29v28h-29v-28zM377.5 148.5h29v28h-29v-28zM407.5 148.5h29v28h-29v-28zM437.5 148.5h29v28h-29v-28zM467.5 148.5h29v28h-29v-28z"/><path style="opacity:1" fill="#9f9f05" d="M376.5 117.5c.667 0 1 .333 1 1v88c-20 1.333-40 1.333-60 0l5-4h20v-20a802.777 802.777 0 0 1 4-5h1v-1l5-4h20v-20c1.096-1.603 2.43-3.103 4-4.5-9.661-.5-19.328-.666-29-.5v-1l5-4h20v-20a802.777 802.777 0 0 1 4-5z"/><path style="opacity:1" fill="#4342fc" d="M37.5 147.5h20v5h-20v-5zM67.5 147.5h20v5h-20v-5z"/><path style="opacity:1" fill="#fc403f" d="M552.5 144.5c6.578.96 13.245 1.293 20 1v7h-20v-8z"/><path style="opacity:1" fill="#7f7ffb" d="M62.5 157.5c9.672-.166 19.34 0 29 .5-1.57 1.397-2.904 2.897-4 4.5h-20v20a796.928 796.928 0 0 0-5 4v-29z"/><path style="opacity:1" fill="#fb7f7f" d="M547.5 157.5c9.672-.166 19.339 0 29 .5-1.57 1.397-2.904 2.897-4 4.5h-20v20a802.777 802.777 0 0 0-5 4v-29z"/><path style="opacity:1" d="M32.5 158.5h28v28h-28v-28zM92.5 158.5h28v28h-28v-28zM121.5 158.5h29v28h-29v-28zM607.5 158.5h28v28h-28v-28zM636.5 158.5h29v28h-29v-28z"/><path style="opacity:1" fill="#9f0504" d="M576.5 127.5h1c-.166 9.672 0 19.339.5 29 1.397-1.57 2.897-2.904 4.5-4h20v-20a802.777 802.777 0 0 1 4-5c.667 0 1 .333 1 1v58a900.97 900.97 0 0 1-60 1v-1a802.777 802.777 0 0 1 5-4h20v-20c1.096-1.603 2.43-3.103 4-4.5-9.661-.5-19.328-.666-29-.5v-1a802.777 802.777 0 0 1 5-4h20v-20a802.777 802.777 0 0 1 4-5z"/><path style="opacity:1" fill="#fb7f7f" d="M602.5 162.5h-20v20c-1.603 1.096-3.103 2.43-4.5 4-.5-9.661-.666-19.328-.5-29 9.672-.166 19.339 0 29 .5-1.57 1.397-2.904 2.897-4 4.5z"/><path style="opacity:1" fill="#fc403f" d="M582.5 144.5c6.578.96 13.245 1.293 20 1v7h-20v-8z"/><path style="opacity:1" fill="#e90505" d="M602.5 132.5v13c-6.755.293-13.422-.04-20-1v-12h20z"/><path style="opacity:1" fill="#fb7f7f" d="M577.5 127.5h29a802.777 802.777 0 0 0-4 5h-20v20c-1.603 1.096-3.103 2.43-4.5 4-.5-9.661-.666-19.328-.5-29z"/><path style="opacity:1" fill="#f5f521" d="M372.5 152.5v20h-20v-20h20z"/><path style="opacity:1" fill="#e90505" d="M572.5 162.5v13c-6.755.293-13.422-.04-20-1v-12h20zM602.5 162.5v13c-6.755.293-13.422-.04-20-1v-12h20z"/><path style="opacity:1" fill="#1211f3" d="M87.5 162.5v15h-20v-15h20z"/><path style="opacity:1" fill="#fbfb7f" d="M346.5 177.5a802.777 802.777 0 0 0-4 5h-20v20l-5 4v-29h29zM347.5 177.5c9.672-.166 19.339 0 29 .5-1.57 1.397-2.904 2.897-4 4.5h-20v20a25.14 25.14 0 0 0-4.5 4c-.5-9.661-.666-19.328-.5-29z"/><path style="opacity:1" d="M197.5 178.5h29v28h-29v-28zM227.5 178.5h29v28h-29v-28zM257.5 178.5h29v28h-29v-28zM287.5 178.5h29v28h-29v-28zM377.5 178.5h29v28h-29v-28zM407.5 178.5h29v28h-29v-28zM437.5 178.5h29v28h-29v-28zM467.5 178.5h29v28h-29v-28z"/><path style="opacity:1" fill="#4342fc" d="M67.5 177.5h20v5h-20v-5z"/><path style="opacity:1" fill="#fc403f" d="M552.5 174.5c6.578.96 13.245 1.293 20 1v7h-20v-8zM582.5 174.5c6.578.96 13.245 1.293 20 1v7h-20v-8z"/><path style="opacity:1" d="M32.5 188.5h28v28h-28v-28zM61.5 188.5h29v28h-29v-28zM91.5 188.5h29v28h-29v-28zM121.5 188.5h29v28h-29v-28zM547.5 188.5h28v28h-28v-28zM576.5 188.5h29v28h-29v-28zM606.5 188.5h29v28h-29v-28zM636.5 188.5h29v28h-29v-28z"/><path style="opacity:1" fill="#f5f521" d="M342.5 182.5v20h-20v-20h20zM372.5 182.5v20h-20v-20h20z"/><path style="opacity:1" d="M197.5 208.5h29v28h-29v-28zM227.5 208.5h29v28h-29v-28zM257.5 208.5h29v28h-29v-28zM287.5 208.5h29v28h-29v-28zM317.5 208.5h29v28h-29v-28zM347.5 208.5h29v28h-29v-28zM377.5 208.5h29v28h-29v-28zM407.5 208.5h29v28h-29v-28zM437.5 208.5h29v28h-29v-28zM467.5 208.5h29v28h-29v-28z"/><path style="opacity:1" fill="#7ffb7f" d="M256.5 237.5a802.777 802.777 0 0 0-4 5h-20v20l-5 4v-29h29z"/><path style="opacity:1" d="M197.5 238.5h29v28h-29v-28zM257.5 238.5h29v28h-29v-28zM287.5 238.5h29v28h-29v-28zM317.5 238.5h29v28h-29v-28zM347.5 238.5h29v28h-29v-28zM377.5 238.5h29v28h-29v-28zM407.5 238.5h29v28h-29v-28zM437.5 238.5h29v28h-29v-28zM467.5 238.5h29v28h-29v-28z"/><path style="opacity:1" fill="#22f520" d="M252.5 242.5v20h-20v-20h20z"/><path style="opacity:1" fill="#7ffb7f" d="M197.5 267.5h29a802.777 802.777 0 0 0-4 5h-20v20l-5 4v-29z"/><path style="opacity:1" fill="#fbfb7f" d="M376.5 267.5a802.777 802.777 0 0 0-4 5h-20v20l-5 4v-29h29zM436.5 267.5a802.777 802.777 0 0 0-4 5h-20v20l-5 4v-29h29z"/><path style="opacity:1" fill="#7ffb7f" d="M467.5 267.5h29a802.777 802.777 0 0 0-4 5h-20v20l-5 4v-29z"/><path style="opacity:1" d="M257.5 268.5h29v28h-29v-28zM287.5 268.5h29v28h-29v-28zM317.5 268.5h29v28h-29v-28zM377.5 268.5h29v28h-29v-28zM372.5 272.5v20h-20v-20h20z"/><path style="opacity:1" fill="#22f520" d="M222.5 272.5v20h-20v-20h20z"/><path style="opacity:1" fill="#f5f521" d="M432.5 272.5v20h-20v-20h20z"/><path style="opacity:1" fill="#22f520" d="M492.5 272.5v20h-20v-20h20z"/><path style="opacity:1" fill="#7f7ffb" d="M197.5 297.5h29a802.777 802.777 0 0 0-4 5h-20v20a802.777 802.777 0 0 0-5 4v-29z"/><path style="opacity:1" fill="#7ffb7f" d="M227.5 297.5c9.672-.166 19.339 0 29 .5-1.57 1.397-2.904 2.897-4 4.5h-20v20l-5 4v-29z"/><path style="opacity:1" fill="#fb81fb" d="M316.5 297.5a802.777 802.777 0 0 0-4 5h-21v20c-1 1.667-2.333 3-4 4v-29h29z"/><path style="opacity:1" fill="#fbfb7f" d="M347.5 297.5c9.672-.166 19.339 0 29 .5-1.57 1.397-2.904 2.897-4 4.5h-20v20l-5 4v-29zM407.5 297.5c9.672-.166 19.339 0 29 .5-1.57 1.397-2.904 2.897-4 4.5h-20v20l-5 4v-29z"/><path style="opacity:1" fill="#7ffb7f" d="M466.5 297.5a802.777 802.777 0 0 0-4 5h-20v20l-5 4v-29h29z"/><path style="opacity:1" d="M257.5 298.5h29v28h-29v-28zM317.5 298.5h29v28h-29v-28z"/><path style="opacity:1" fill="#059f05" d="M256.5 237.5c.667 0 1 .333 1 1v89h-30v-1l5-4h20v-20c1.096-1.603 2.43-3.103 4-4.5-9.661-.5-19.328-.666-29-.5h-30v-1l5-4h20v-20a802.777 802.777 0 0 1 4-5h1v-1l5-4h20v-20a802.777 802.777 0 0 1 4-5z"/><path style="opacity:1" fill="#22f520" d="M252.5 272.5v20h-20v-20h20z"/><path style="opacity:1" fill="#7ffb7f" d="M227.5 267.5c9.672-.166 19.339 0 29 .5-1.57 1.397-2.904 2.897-4 4.5h-20v20a25.14 25.14 0 0 0-4.5 4c-.5-9.661-.666-19.328-.5-29z"/><path style="opacity:1" fill="#9f069f" d="M316.5 297.5c.667 0 1 .333 1 1v59h-30v30h-30v-1c1.667-1 3-2.333 4-4h21v-20c1.096-1.603 2.43-3.103 4-4.5-9.661-.5-19.328-.666-29-.5v-1c1.667-1 3-2.333 4-4h21v-20a802.777 802.777 0 0 1 4-5h1v-1c1.667-1 3-2.333 4-4h21v-20a802.777 802.777 0 0 1 4-5z"/><path style="opacity:1" fill="#9f9f05" d="M376.5 267.5c.667 0 1 .333 1 1v89h-60v-1l5-4h20v-20a802.777 802.777 0 0 1 4-5h1v-1l5-4h20v-20c1.096-1.603 2.43-3.103 4-4.5-9.661-.5-19.328-.666-29-.5v-1l5-4h20v-20a802.777 802.777 0 0 1 4-5z"/><path style="opacity:1" fill="#039c9c" d="M407.5 299.5v28h-1c-9.357.332-18.69-.002-28-1 1.021-1.688 2.355-3.021 4-4h21c-.166-6.342 0-12.675.5-19 .66-1.824 1.827-3.157 3.5-4z"/><path style="opacity:1" d="M372.5 302.5v20h-20v-20h20z"/><path style="opacity:1" fill="#1211f3" d="M222.5 302.5v15h-20v-15h20z"/><path style="opacity:1" fill="#22f520" d="M252.5 302.5v20h-20v-20h20z"/><path style="opacity:1" fill="#f524f5" d="M312.5 302.5v20h-21v-20h21z"/><path style="opacity:1" fill="#f5f521" d="M432.5 302.5v20h-20v-20h20z"/><path style="opacity:1" fill="#22f520" d="M462.5 302.5v20h-20v-20h20z"/><path style="opacity:1" fill="#23f1f1" d="M406.5 297.5h1v2c-1.673.843-2.84 2.176-3.5 4-.5 6.325-.666 12.658-.5 19h-21v-20c7.032.33 14.032-.003 21-1a514.367 514.367 0 0 0 3-4z"/><path style="opacity:1" fill="#4342fc" d="M202.5 317.5h20v5h-20v-5z"/><path style="opacity:1" fill="#7f7ffb" d="M197.5 327.5c9.672-.166 19.339 0 29 .5-1.57 1.397-2.904 2.897-4 4.5h-20v20a802.777 802.777 0 0 0-5 4v-29z"/><path style="opacity:1" fill="#fb81fb" d="M257.5 327.5h29a802.777 802.777 0 0 0-4 5h-21v20c-1 1.667-2.333 3-4 4v-29zM287.5 327.5c9.672-.166 19.339 0 29 .5-1.57 1.397-2.904 2.897-4 4.5h-21v20a19.552 19.552 0 0 1-3.5 4c-.5-9.661-.666-19.328-.5-29z"/><path style="opacity:1" fill="#fbfb7f" d="M317.5 327.5h29a802.777 802.777 0 0 0-4 5h-20v20l-5 4v-29zM347.5 327.5c9.672-.166 19.339 0 29 .5-1.57 1.397-2.904 2.897-4 4.5h-20v20a25.14 25.14 0 0 0-4.5 4c-.5-9.661-.666-19.328-.5-29z"/><path style="opacity:1" fill="#7ffbfb" d="M377.5 297.5h29a514.367 514.367 0 0 1-3 4 111.148 111.148 0 0 1-21 1v20c-1.645.979-2.979 2.312-4 4 9.31.998 18.643 1.332 28 1a514.367 514.367 0 0 1-3 4 111.148 111.148 0 0 1-21 1v20c-1.645.979-2.979 2.312-4 4 9.31.998 18.643 1.332 28 1a514.367 514.367 0 0 1-3 4 111.148 111.148 0 0 1-21 1v20c-1.645.979-2.979 2.312-4 4 9.31.998 18.643 1.332 28 1a514.367 514.367 0 0 1-3 4 111.148 111.148 0 0 1-21 1v20c-2.087 1.085-3.42 2.751-4 5h-1v-120z"/><path style="opacity:1" fill="#fbfb7f" d="M407.5 327.5c9.672-.166 19.339 0 29 .5-1.57 1.397-2.904 2.897-4 4.5h-20v20l-5 4v-29z"/><path style="opacity:1" fill="#fb81fb" d="M437.5 327.5h29a802.777 802.777 0 0 0-4 5h-21v20c-1 1.667-2.333 3-4 4v-29z"/><path style="opacity:1" fill="#7ffb7f" d="M467.5 327.5c9.672-.166 19.339 0 29 .5-1.57 1.397-2.904 2.897-4 4.5h-20v20l-5 4v-29z"/><path style="opacity:1" fill="#05049f" d="M226.5 297.5h1v30c-.166 9.672 0 19.339.5 29 1.397-1.57 2.897-2.904 4.5-4h20v-20a802.777 802.777 0 0 1 4-5h1v60h-30v-1a802.777 802.777 0 0 1 5-4h20v-20c1.096-1.603 2.43-3.103 4-4.5-9.661-.5-19.328-.666-29-.5h-30v-1a802.777 802.777 0 0 1 5-4h20v-20c1.096-1.603 2.43-3.103 4-4.5-9.661-.5-19.328-.666-29-.5v-1a802.777 802.777 0 0 1 5-4h20v-20a802.777 802.777 0 0 1 4-5z"/><path style="opacity:1" fill="#7f7ffb" d="M227.5 327.5h29a802.777 802.777 0 0 0-4 5h-20v20c-1.603 1.096-3.103 2.43-4.5 4-.5-9.661-.666-19.328-.5-29z"/><path style="opacity:1" fill="#039c9c" d="M407.5 329.5v28h-1c-9.357.332-18.69-.002-28-1 1.021-1.688 2.355-3.021 4-4h21c-.166-6.342 0-12.675.5-19 .66-1.824 1.827-3.157 3.5-4z"/><path style="opacity:1" fill="#9f9e05" d="M436.5 267.5h1c-.166 9.672 0 19.339.5 29a25.14 25.14 0 0 1 4.5-4h20v-20a802.777 802.777 0 0 1 4-5h1v30h-30v60h-30v-1l5-4h20v-20c1.096-1.603 2.43-3.103 4-4.5-9.661-.5-19.328-.666-29-.5v-1l5-4h20v-20c1.096-1.603 2.43-3.103 4-4.5-9.661-.5-19.328-.666-29-.5v-1l5-4h20v-20a802.777 802.777 0 0 1 4-5z"/><path style="opacity:1" fill="#f5f521" d="M462.5 272.5v20h-20v-20h20z"/><path style="opacity:1" fill="#fbfb7f" d="M437.5 267.5h29a802.777 802.777 0 0 0-4 5h-20v20a25.14 25.14 0 0 0-4.5 4c-.5-9.661-.666-19.328-.5-29z"/><path style="opacity:1" fill="#059f05" d="M496.5 267.5h1v90h-30v-1l5-4h20v-20c1.096-1.603 2.43-3.103 4-4.5-9.661-.5-19.328-.666-29-.5h-30v-1l5-4h20v-20a802.777 802.777 0 0 1 4-5h1v-1l5-4h20v-20a802.777 802.777 0 0 1 4-5z"/><path style="opacity:1" fill="#22f520" d="M492.5 302.5v20h-20v-20h20z"/><path style="opacity:1" fill="#7ffb7f" d="M467.5 297.5c9.672-.166 19.339 0 29 .5-1.57 1.397-2.904 2.897-4 4.5h-20v20a25.14 25.14 0 0 0-4.5 4c-.5-9.661-.666-19.328-.5-29z"/><path style="opacity:1" d="M342.5 332.5v20h-20v-20h20zM372.5 332.5v20h-20v-20h20z"/><path style="opacity:1" fill="#1211f3" d="M222.5 332.5v15h-20v-15h20zM252.5 332.5v15h-20v-15h20z"/><path style="opacity:1" fill="#f524f5" d="M282.5 332.5v20h-21v-20h21zM312.5 332.5v20h-21v-20h21z"/><path style="opacity:1" fill="#f5f521" d="M432.5 332.5v20h-20v-20h20z"/><path style="opacity:1" fill="#f524f5" d="M462.5 332.5v20h-21v-20h21z"/><path style="opacity:1" fill="#22f520" d="M492.5 332.5v20h-20v-20h20z"/><path style="opacity:1" fill="#23f1f1" d="M406.5 327.5h1v2c-1.673.843-2.84 2.176-3.5 4-.5 6.325-.666 12.658-.5 19h-21v-20c7.032.33 14.032-.003 21-1a514.367 514.367 0 0 0 3-4z"/><path style="opacity:1" fill="#4342fc" d="M202.5 347.5h20v5h-20v-5zM232.5 347.5h20v5h-20v-5z"/><path style="opacity:1" fill="#7f7ffb" d="M227.5 357.5c9.672-.166 19.339 0 29 .5-1.57 1.397-2.904 2.897-4 4.5h-20v20a802.777 802.777 0 0 0-5 4v-29z"/><path style="opacity:1" fill="#fb81fb" d="M257.5 357.5c9.672-.166 19.339 0 29 .5-1.57 1.397-2.904 2.897-4 4.5h-21v20c-1 1.667-2.333 3-4 4v-29z"/><path style="opacity:1" fill="#fbc27f" d="M316.5 357.5a802.777 802.777 0 0 0-4 5h-20v20a802.777 802.777 0 0 0-5 4v-29h29z"/><path style="opacity:1" fill="#454645" d="M347.5 358.5v-1h30v240h-30v-1h29v-28h-29v-2h29v-28h-29v-2h29v-28h-29v-2h29v-28h-29v-2h29v-28h-29v-2h29v-28h-29v-2h29v-28h-29v-2h29v-28h-29z"/><path style="opacity:1" fill="#fb81fb" d="M407.5 357.5h29a802.777 802.777 0 0 0-4 5h-21v20c-1 1.667-2.333 3-4 4v-29z"/><path style="opacity:1" d="M347.5 358.5h29v28h-29v-28z"/><path style="opacity:1" fill="#039c9c" d="M227.5 359.5v28h-1c-9.357.332-18.69-.002-28-1 1.021-1.688 2.355-3.021 4-4h21c-.166-6.342 0-12.675.5-19 .66-1.824 1.827-3.157 3.5-4zM407.5 359.5v28h-1c-9.357.332-18.69-.002-28-1 1.021-1.688 2.355-3.021 4-4h21c-.166-6.342 0-12.675.5-19 .66-1.824 1.827-3.157 3.5-4z"/><path style="opacity:1" fill="#e87f05" d="M312.5 362.5v13c-6.755.293-13.422-.04-20-1v-12h20z"/><path style="opacity:1" fill="#1211f3" d="M252.5 362.5v15h-20v-15h20z"/><path style="opacity:1" fill="#f524f5" d="M282.5 362.5v20h-21v-20h21zM432.5 362.5v20h-21v-20h21z"/><path style="opacity:1" fill="#23f1f1" d="M226.5 357.5h1v2c-1.673.843-2.84 2.176-3.5 4-.5 6.325-.666 12.658-.5 19h-21v-20c7.032.33 14.032-.003 21-1a514.367 514.367 0 0 0 3-4zM406.5 357.5h1v2c-1.673.843-2.84 2.176-3.5 4-.5 6.325-.666 12.658-.5 19h-21v-20c7.032.33 14.032-.003 21-1a514.367 514.367 0 0 0 3-4z"/><path style="opacity:1" fill="#4342fc" d="M232.5 377.5h20v5h-20v-5z"/><path style="opacity:1" fill="#fca640" d="M292.5 374.5c6.578.96 13.245 1.293 20 1v7h-20v-8z"/><path style="opacity:1" fill="#060606" d="M102.5 389.5h-3a43.123 43.123 0 0 1-1 13c-1.333-6-1.333-12 0-18 1.024 1.353 2.357 2.02 4 2v3zM107.5 394.5h3a25.879 25.879 0 0 1 1-10c1.333 6 1.333 12 0 18-.952-1.545-1.285-3.212-1-5h-3v-3z"/><path style="opacity:1" d="M150.5 384.5c1.316 2.587 1.983 5.587 2 9l-1 9a81.883 81.883 0 0 1-1-18z"/><path style="opacity:1" fill="#434343" d="M115.5 384.5h3v3h-3v-3z"/><path style="opacity:1" fill="#7ffbfb" d="M197.5 357.5h29a514.367 514.367 0 0 1-3 4 111.148 111.148 0 0 1-21 1v20c-1.645.979-2.979 2.312-4 4 9.31.998 18.643 1.332 28 1a514.367 514.367 0 0 1-3 4 111.148 111.148 0 0 1-21 1v20c-1.645.979-2.979 2.312-4 4 9.31.998 18.643 1.332 28 1a514.367 514.367 0 0 1-3 4 111.148 111.148 0 0 1-21 1v20c-1.645.979-2.979 2.312-4 4 9.31.998 18.643 1.332 28 1a514.367 514.367 0 0 1-3 4 111.148 111.148 0 0 1-21 1v20c-2.087 1.085-3.42 2.751-4 5h-1v-120z"/><path style="opacity:1" fill="#fb7f7f" d="M227.5 387.5h29a802.777 802.777 0 0 0-4 5h-20v20a802.777 802.777 0 0 0-5 4v-29z"/><path style="opacity:1" fill="#fbfb7f" d="M287.5 387.5h29a802.777 802.777 0 0 0-4 5h-20v20l-5 4v-29z"/><path style="opacity:1" fill="#fbc27f" d="M317.5 387.5c9.672-.166 19.339 0 29 .5-1.57 1.397-2.904 2.897-4 4.5h-20v20a802.777 802.777 0 0 0-5 4v-29z"/><path style="opacity:1" fill="#fb81fb" d="M407.5 387.5c9.672-.166 19.339 0 29 .5-1.57 1.397-2.904 2.897-4 4.5h-21v20c-1 1.667-2.333 3-4 4v-29z"/><path style="opacity:1" d="M347.5 388.5h29v28h-29v-28zM115.5 389.5c1.3 1.723 1.967 3.89 2 6.5l-1 6.5a43.117 43.117 0 0 1-1-13z"/><path style="opacity:1" fill="#3e3e3e" d="M125.5 399.5h-3l-2-10h3l2 10z"/><path style="opacity:1" d="M130.5 394.5c-.285-1.788.048-3.455 1-5l1 2.5c-.184 1.376-.851 2.209-2 2.5z"/><path style="opacity:1" fill="#039c9c" d="M227.5 389.5v28h-1c-9.357.332-18.69-.002-28-1 1.021-1.688 2.355-3.021 4-4h21c-.166-6.342 0-12.675.5-19 .66-1.824 1.827-3.157 3.5-4z"/><path style="opacity:1" fill="#9e5704" d="M316.5 357.5h1c-.166 9.672 0 19.339.5 29 1.397-1.57 2.897-2.904 4.5-4h20v-20a802.777 802.777 0 0 1 4-5h1v90h-30v-1a802.777 802.777 0 0 1 5-4h20v-20c1.096-1.603 2.43-3.103 4-4.5-9.661-.5-19.328-.666-29-.5v-1a802.777 802.777 0 0 1 5-4h20v-20c1.096-1.603 2.43-3.103 4-4.5-9.661-.5-19.328-.666-29-.5h-30v-1a802.777 802.777 0 0 1 5-4h20v-20a802.777 802.777 0 0 1 4-5z"/><path style="opacity:1" fill="#fca640" d="M322.5 374.5c6.578.96 13.245 1.293 20 1v7h-20v-8z"/><path style="opacity:1" fill="#e87f05" d="M342.5 362.5v13c-6.755.293-13.422-.04-20-1v-12h20z"/><path style="opacity:1" fill="#fbc27f" d="M317.5 357.5h29a802.777 802.777 0 0 0-4 5h-20v20c-1.603 1.096-3.103 2.43-4.5 4-.5-9.661-.666-19.328-.5-29z"/><path style="opacity:1" fill="#039c9c" d="M407.5 389.5v28h-29c.58-2.249 1.913-3.915 4-5h21c-.166-6.342 0-12.675.5-19 .66-1.824 1.827-3.157 3.5-4z"/><path style="opacity:1" fill="#9e059e" d="M466.5 327.5h1v30c-.166 9.672 0 19.339.5 29a19.552 19.552 0 0 0 3.5-4h21v-20a802.777 802.777 0 0 1 4-5h1v60h-30v30h-30v-1c1.667-1 3-2.333 4-4h21v-20c1.096-1.603 2.43-3.103 4-4.5-9.661-.5-19.328-.666-29-.5h-30v-1c1.667-1 3-2.333 4-4h21v-20c1.096-1.603 2.43-3.103 4-4.5-9.661-.5-19.328-.666-29-.5v-1c1.667-1 3-2.333 4-4h21v-20a802.777 802.777 0 0 1 4-5h1v-1c1.667-1 3-2.333 4-4h21v-20a802.777 802.777 0 0 1 4-5z"/><path style="opacity:1" fill="#fb81fb" d="M492.5 392.5h-21v20a19.552 19.552 0 0 1-3.5 4c-.5-9.661-.666-19.328-.5-29 9.672-.166 19.339 0 29 .5-1.57 1.397-2.904 2.897-4 4.5zM462.5 392.5h-21v20a19.552 19.552 0 0 1-3.5 4c-.5-9.661-.666-19.328-.5-29 9.672-.166 19.339 0 29 .5-1.57 1.397-2.904 2.897-4 4.5z"/><path style="opacity:1" fill="#f524f5" d="M492.5 362.5v20h-21v-20h21zM462.5 362.5v20h-21v-20h21z"/><path style="opacity:1" fill="#fb81fb" d="M467.5 357.5h29a802.777 802.777 0 0 0-4 5h-21v20a19.552 19.552 0 0 1-3.5 4c-.5-9.661-.666-19.328-.5-29zM437.5 357.5c9.672-.166 19.339 0 29 .5-1.57 1.397-2.904 2.897-4 4.5h-21v20a19.552 19.552 0 0 1-3.5 4c-.5-9.661-.666-19.328-.5-29z"/><path style="opacity:1" fill="#3a3a3a" d="M102.5 389.5c3 .333 4.667 2 5 5-.333-3-2-4.667-5-5z"/><path style="opacity:1" fill="#282828" d="M145.5 392.5h3v5a25.879 25.879 0 0 0-10 1 13.116 13.116 0 0 0 7 1v3c-3.288.427-6.288-.24-9-2l-1-4a53.669 53.669 0 0 1 2-7h8v3z"/><path style="opacity:1" fill="#fefffe" d="M145.5 392.5c-.652 1.225-1.819 1.892-3.5 2l-3.5-1a13.116 13.116 0 0 1 7-1z"/><path style="opacity:1" fill="#242424" d="M130.5 394.5a23.142 23.142 0 0 1-2 8h-3v-3c1.756-1.052 2.423-2.719 2-5h3z"/><path style="opacity:1" fill="#e90505" d="M252.5 392.5v13c-6.755.293-13.422-.04-20-1v-12h20z"/><path style="opacity:1" fill="#e87f05" d="M342.5 392.5v13c-6.755.293-13.422-.04-20-1v-12h20z"/><path style="opacity:1" fill="#f5f521" d="M312.5 392.5v20h-20v-20h20z"/><path style="opacity:1" fill="#f524f5" d="M432.5 392.5v20h-21v-20h21zM462.5 392.5v20h-21v-20h21zM492.5 392.5v20h-21v-20h21z"/><path style="opacity:1" fill="#23f1f1" d="M226.5 387.5h1v2c-1.673.843-2.84 2.176-3.5 4-.5 6.325-.666 12.658-.5 19h-21v-20c7.032.33 14.032-.003 21-1a514.367 514.367 0 0 0 3-4zM406.5 387.5h1v2c-1.673.843-2.84 2.176-3.5 4-.5 6.325-.666 12.658-.5 19h-21v-20c7.032.33 14.032-.003 21-1a514.367 514.367 0 0 0 3-4z"/><path style="opacity:1" fill="#fc403f" d="M232.5 404.5c6.578.96 13.245 1.293 20 1v7h-20v-8z"/><path style="opacity:1" fill="#fca640" d="M322.5 404.5c6.578.96 13.245 1.293 20 1v7h-20v-8z"/><path style="opacity:1" fill="#fb7f7f" d="M227.5 417.5c9.672-.166 19.339 0 29 .5-1.57 1.397-2.904 2.897-4 4.5h-20v20a802.777 802.777 0 0 0-5 4v-29z"/><path style="opacity:1" fill="#fbfb7f" d="M287.5 417.5c9.672-.166 19.339 0 29 .5-1.57 1.397-2.904 2.897-4 4.5h-20v20l-5 4v-29z"/><path style="opacity:1" fill="#fbc27f" d="M317.5 417.5c9.672-.166 19.339 0 29 .5-1.57 1.397-2.904 2.897-4 4.5h-20v20a802.777 802.777 0 0 0-5 4v-29z"/><path style="opacity:1" fill="#fb7f7f" d="M377.5 417.5h29a802.777 802.777 0 0 0-4 5h-20v20a802.777 802.777 0 0 0-5 4v-29z"/><path style="opacity:1" fill="#fb81fb" d="M437.5 417.5c9.672-.166 19.339 0 29 .5-1.57 1.397-2.904 2.897-4 4.5h-21v20c-1 1.667-2.333 3-4 4v-29z"/><path style="opacity:1" d="M347.5 418.5h29v28h-29v-28z"/><path style="opacity:1" fill="#ececec" d="M125.5 419.5h3v18h-3v-13h-3v-3c1.679.215 2.679-.452 3-2z"/><path style="opacity:1" fill="#039c9c" d="M227.5 419.5v28h-1c-9.357.332-18.69-.002-28-1 1.021-1.688 2.355-3.021 4-4h21c-.166-6.342 0-12.675.5-19 .66-1.824 1.827-3.157 3.5-4z"/><path style="opacity:1" fill="#9f0504" d="M256.5 387.5h1c-.166 9.672 0 19.339.5 29 1.397-1.57 2.897-2.904 4.5-4h20v-20a802.777 802.777 0 0 1 4-5h1v60h-60v-1a802.777 802.777 0 0 1 5-4h20v-20c1.096-1.603 2.43-3.103 4-4.5-9.661-.5-19.328-.666-29-.5v-1a802.777 802.777 0 0 1 5-4h20v-20a802.777 802.777 0 0 1 4-5z"/><path style="opacity:1" fill="#fb7f7f" d="M282.5 422.5h-20v20c-1.603 1.096-3.103 2.43-4.5 4-.5-9.661-.666-19.328-.5-29 9.672-.166 19.339 0 29 .5-1.57 1.397-2.904 2.897-4 4.5z"/><path style="opacity:1" fill="#fc403f" d="M262.5 404.5c6.578.96 13.245 1.293 20 1v7h-20v-8z"/><path style="opacity:1" fill="#e90505" d="M282.5 392.5v13c-6.755.293-13.422-.04-20-1v-12h20z"/><path style="opacity:1" fill="#fb7f7f" d="M257.5 387.5h29a802.777 802.777 0 0 0-4 5h-20v20c-1.603 1.096-3.103 2.43-4.5 4-.5-9.661-.666-19.328-.5-29z"/><path style="opacity:1" fill="#9f9f05" d="M316.5 387.5h1v90h-60v-1l5-4h20v-20a802.777 802.777 0 0 1 4-5h1v-1l5-4h20v-20c1.096-1.603 2.43-3.103 4-4.5-9.661-.5-19.328-.666-29-.5v-1l5-4h20v-20a802.777 802.777 0 0 1 4-5z"/><path style="opacity:1" fill="#039c9c" d="M497.5 419.5v28h-1c-9.357.332-18.69-.002-28-1 1.021-1.688 2.355-3.021 4-4h21c-.166-6.342 0-12.675.5-19 .66-1.824 1.827-3.157 3.5-4z"/><path style="opacity:1" fill="#e90505" d="M252.5 422.5v13c-6.755.293-13.422-.04-20-1v-12h20zM282.5 422.5v13c-6.755.293-13.422-.04-20-1v-12h20z"/><path style="opacity:1" fill="#e87f05" d="M342.5 422.5v13c-6.755.293-13.422-.04-20-1v-12h20z"/><path style="opacity:1" fill="#e90505" d="M402.5 422.5v13c-6.755.293-13.422-.04-20-1v-12h20z"/><path style="opacity:1" fill="#f5f521" d="M312.5 422.5v20h-20v-20h20z"/><path style="opacity:1" fill="#f524f5" d="M462.5 422.5v20h-21v-20h21z"/><path style="opacity:1" fill="#23f1f1" d="M226.5 417.5h1v2c-1.673.843-2.84 2.176-3.5 4-.5 6.325-.666 12.658-.5 19h-21v-20c7.032.33 14.032-.003 21-1a514.367 514.367 0 0 0 3-4zM496.5 417.5h1v2c-1.673.843-2.84 2.176-3.5 4-.5 6.325-.666 12.658-.5 19h-21v-20c7.032.33 14.032-.003 21-1a514.367 514.367 0 0 0 3-4z"/><path style="opacity:1" fill="#fc403f" d="M232.5 434.5c6.578.96 13.245 1.293 20 1v7h-20v-8zM262.5 434.5c6.578.96 13.245 1.293 20 1v7h-20v-8z"/><path style="opacity:1" fill="#fca640" d="M322.5 434.5c6.578.96 13.245 1.293 20 1v7h-20v-8z"/><path style="opacity:1" fill="#fc403f" d="M382.5 434.5c6.578.96 13.245 1.293 20 1v7h-20v-8z"/><path style="opacity:1" fill="#fb81fb" d="M227.5 447.5h29a802.777 802.777 0 0 0-4 5h-21v20c-1 1.667-2.333 3-4 4v-29z"/><path style="opacity:1" fill="#fbfb7f" d="M257.5 447.5h29a802.777 802.777 0 0 0-4 5h-20v20l-5 4v-29zM287.5 447.5c9.672-.166 19.339 0 29 .5-1.57 1.397-2.904 2.897-4 4.5h-20v20a25.14 25.14 0 0 0-4.5 4c-.5-9.661-.666-19.328-.5-29z"/><path style="opacity:1" fill="#7ffb7f" d="M317.5 447.5h29a802.777 802.777 0 0 0-4 5h-20v20l-5 4v-29z"/><path style="opacity:1" fill="#fb7f7f" d="M377.5 447.5c9.672-.166 19.339 0 29 .5-1.57 1.397-2.904 2.897-4 4.5h-20v20a802.777 802.777 0 0 0-5 4v-29z"/><path style="opacity:1" fill="#454645" d="M437.5 448.5v-1h30v60h-30v-1h29v-28h-29v-2h29v-28h-29z"/><path style="opacity:1" fill="#7ffbfb" d="M496.5 417.5a514.367 514.367 0 0 1-3 4 111.148 111.148 0 0 1-21 1v20c-1.645.979-2.979 2.312-4 4 9.31.998 18.643 1.332 28 1a514.367 514.367 0 0 1-3 4 111.148 111.148 0 0 1-21 1v20c-1.645.979-2.979 2.312-4 4 9.31.998 18.643 1.332 28 1a514.367 514.367 0 0 1-3 4 111.148 111.148 0 0 1-21 1v20c-1.645.979-2.979 2.312-4 4 9.31.998 18.643 1.332 28 1a514.367 514.367 0 0 1-3 4 111.148 111.148 0 0 1-21 1v20c-2.087 1.085-3.42 2.751-4 5h-1v-120h29z"/><path style="opacity:1" d="M347.5 448.5h29v28h-29v-28zM437.5 448.5h29v28h-29v-28z"/><path style="opacity:1" fill="#039c9c" d="M227.5 449.5v28h-29c.58-2.249 1.913-3.915 4-5h21c-.166-6.342 0-12.675.5-19 .66-1.824 1.827-3.157 3.5-4z"/><path style="opacity:1" fill="#9f069f" d="M256.5 447.5h1v60h-30v30h-30v-1c1.667-1 3-2.333 4-4h21v-20c1.096-1.603 2.43-3.103 4-4.5-9.661-.5-19.328-.666-29-.5v-1c1.667-1 3-2.333 4-4h21v-20a802.777 802.777 0 0 1 4-5h1v-1c1.667-1 3-2.333 4-4h21v-20a802.777 802.777 0 0 1 4-5z"/><path style="opacity:1" fill="#9f0504" d="M406.5 417.5h1c-.166 9.672 0 19.339.5 29 1.397-1.57 2.897-2.904 4.5-4h20v-20a802.777 802.777 0 0 1 4-5h1v60h-60v-1a802.777 802.777 0 0 1 5-4h20v-20c1.096-1.603 2.43-3.103 4-4.5-9.661-.5-19.328-.666-29-.5v-1a802.777 802.777 0 0 1 5-4h20v-20a802.777 802.777 0 0 1 4-5z"/><path style="opacity:1" fill="#fb7f7f" d="M432.5 452.5h-20v20c-1.603 1.096-3.103 2.43-4.5 4-.5-9.661-.666-19.328-.5-29 9.672-.166 19.339 0 29 .5-1.57 1.397-2.904 2.897-4 4.5z"/><path style="opacity:1" fill="#fc403f" d="M412.5 434.5c6.578.96 13.245 1.293 20 1v7h-20v-8z"/><path style="opacity:1" fill="#e90505" d="M432.5 422.5v13c-6.755.293-13.422-.04-20-1v-12h20z"/><path style="opacity:1" fill="#fb7f7f" d="M407.5 417.5h29a802.777 802.777 0 0 0-4 5h-20v20c-1.603 1.096-3.103 2.43-4.5 4-.5-9.661-.666-19.328-.5-29z"/><path style="opacity:1" fill="#039c9c" d="M497.5 449.5v28h-1c-9.357.332-18.69-.002-28-1 1.021-1.688 2.355-3.021 4-4h21c-.166-6.342 0-12.675.5-19 .66-1.824 1.827-3.157 3.5-4z"/><path style="opacity:1" fill="#e90505" d="M402.5 452.5v13c-6.755.293-13.422-.04-20-1v-12h20zM432.5 452.5v13c-6.755.293-13.422-.04-20-1v-12h20z"/><path style="opacity:1" fill="#f524f5" d="M252.5 452.5v20h-21v-20h21z"/><path style="opacity:1" fill="#f5f521" d="M282.5 452.5v20h-20v-20h20zM312.5 452.5v20h-20v-20h20z"/><path style="opacity:1" fill="#22f520" d="M342.5 452.5v20h-20v-20h20z"/><path style="opacity:1" fill="#23f1f1" d="M226.5 447.5h1v2c-1.673.843-2.84 2.176-3.5 4-.5 6.325-.666 12.658-.5 19h-21v-20c7.032.33 14.032-.003 21-1a514.367 514.367 0 0 0 3-4zM496.5 447.5h1v2c-1.673.843-2.84 2.176-3.5 4-.5 6.325-.666 12.658-.5 19h-21v-20c7.032.33 14.032-.003 21-1a514.367 514.367 0 0 0 3-4z"/><path style="opacity:1" fill="#fc403f" d="M382.5 464.5c6.578.96 13.245 1.293 20 1v7h-20v-8zM412.5 464.5c6.578.96 13.245 1.293 20 1v7h-20v-8z"/><path style="opacity:1" fill="#fb81fb" d="M197.5 477.5h29a802.777 802.777 0 0 0-4 5h-21v20c-1 1.667-2.333 3-4 4v-29zM227.5 477.5c9.672-.166 19.339 0 29 .5-1.57 1.397-2.904 2.897-4 4.5h-21v20a19.552 19.552 0 0 1-3.5 4c-.5-9.661-.666-19.328-.5-29z"/><path style="opacity:1" fill="#7ffb7f" d="M257.5 477.5h29a802.777 802.777 0 0 0-4 5h-20v20l-5 4v-29z"/><path style="opacity:1" fill="#fbc27f" d="M377.5 477.5h29a802.777 802.777 0 0 0-4 5h-20v20a802.777 802.777 0 0 0-5 4v-29z"/><path style="opacity:1" d="M347.5 478.5h29v28h-29v-28zM437.5 478.5h29v28h-29v-28z"/><path style="opacity:1" fill="#039c9c" d="M497.5 479.5v28h-1c-9.357.332-18.69-.002-28-1 1.021-1.688 2.355-3.021 4-4h21c-.166-6.342 0-12.675.5-19 .66-1.824 1.827-3.157 3.5-4z"/><path style="opacity:1" fill="#e87f05" d="M402.5 482.5v13c-6.755.293-13.422-.04-20-1v-12h20z"/><path style="opacity:1" fill="#f524f5" d="M222.5 482.5v20h-21v-20h21zM252.5 482.5v20h-21v-20h21z"/><path style="opacity:1" fill="#22f520" d="M282.5 482.5v20h-20v-20h20z"/><path style="opacity:1" fill="#23f1f1" d="M496.5 477.5h1v2c-1.673.843-2.84 2.176-3.5 4-.5 6.325-.666 12.658-.5 19h-21v-20c7.032.33 14.032-.003 21-1a514.367 514.367 0 0 0 3-4z"/><path style="opacity:1" fill="#fca640" d="M382.5 494.5c6.578.96 13.245 1.293 20 1v7h-20v-8z"/><path style="opacity:1" fill="#151515" d="M77.5 502.5a43.116 43.116 0 0 1 13 1 7.299 7.299 0 0 1 2 3.5 27.206 27.206 0 0 0-2 5.5h-11a16.868 16.868 0 0 1-1 8 81.87 81.87 0 0 1-1-18z"/><path style="opacity:1" fill="#0b0b0b" d="M128.5 502.5c1.756 1.052 2.423 2.719 2 5h3v3h-3c-.667 13.333-1.333 13.333-2 0h-3v-3h3v-5z"/><path style="opacity:1" fill="#f2f2f2" d="M79.5 505.5h10v4h-10v-4z"/><path style="opacity:1" d="M97.5 507.5v10c-1.277-1.194-1.944-2.86-2-5 .056-2.14.723-3.806 2-5z"/><path style="opacity:1" fill="#7b7b7b" d="M97.5 507.5c.98 3.125 1.313 6.458 1 10h7c-2.659.417-4.992 1.417-7 3-.904-.709-1.237-1.709-1-3v-10z"/><path style="opacity:1" d="M98.5 520.5c2.008-1.583 4.341-2.583 7-3a25.879 25.879 0 0 1 1-10 43.117 43.117 0 0 1 1 13h-9z"/><path style="opacity:1" fill="#0e0e0e" d="M120.5 510.5h-8a25.879 25.879 0 0 1-1 10 43.117 43.117 0 0 1-1-13h10v3z"/><path style="opacity:1" fill="#fb81fb" d="M197.5 507.5c9.672-.166 19.339 0 29 .5-1.57 1.397-2.904 2.897-4 4.5h-21v20c-1 1.667-2.333 3-4 4v-29z"/><path style="opacity:1" fill="#7ffb7f" d="M256.5 507.5a802.777 802.777 0 0 0-4 5h-20v20l-5 4v-29h29z"/><path style="opacity:1" fill="#fbc27f" d="M407.5 507.5c9.672-.166 19.339 0 29 .5-1.57 1.397-2.904 2.897-4 4.5h-20v20a802.777 802.777 0 0 0-5 4v-29z"/><path style="opacity:1" fill="#7f7ffb" d="M437.5 507.5h29a802.777 802.777 0 0 0-4 5h-20v20a802.777 802.777 0 0 0-5 4v-29z"/><path style="opacity:1" d="M347.5 508.5h29v28h-29v-28z"/><path style="opacity:1" fill="#039c9c" d="M407.5 509.5v28h-1c-9.357.332-18.69-.002-28-1 1.021-1.688 2.355-3.021 4-4h21c-.166-6.342 0-12.675.5-19 .66-1.824 1.827-3.157 3.5-4z"/><path style="opacity:1" fill="#9e5704" d="M406.5 477.5h1c-.166 9.672 0 19.339.5 29 1.397-1.57 2.897-2.904 4.5-4h20v-20a802.777 802.777 0 0 1 4-5h1v90h-30v-1a802.777 802.777 0 0 1 5-4h20v-20c1.096-1.603 2.43-3.103 4-4.5-9.661-.5-19.328-.666-29-.5v-1a802.777 802.777 0 0 1 5-4h20v-20c1.096-1.603 2.43-3.103 4-4.5-9.661-.5-19.328-.666-29-.5h-30v-1a802.777 802.777 0 0 1 5-4h20v-20a802.777 802.777 0 0 1 4-5z"/><path style="opacity:1" fill="#fca640" d="M412.5 494.5c6.578.96 13.245 1.293 20 1v7h-20v-8z"/><path style="opacity:1" fill="#e87f05" d="M432.5 482.5v13c-6.755.293-13.422-.04-20-1v-12h20z"/><path style="opacity:1" fill="#fbc27f" d="M407.5 477.5h29a802.777 802.777 0 0 0-4 5h-20v20c-1.603 1.096-3.103 2.43-4.5 4-.5-9.661-.666-19.328-.5-29z"/><path style="opacity:1" fill="#039c9c" d="M497.5 509.5v28h-29c.58-2.249 1.913-3.915 4-5h21c-.166-6.342 0-12.675.5-19 .66-1.824 1.827-3.157 3.5-4z"/><path style="opacity:1" d="M120.5 510.5c1.277 1.194 1.944 2.86 2 5l-1 5a25.879 25.879 0 0 1-1-10z"/><path style="opacity:1" fill="#343434" d="M146.5 510.5c1.248.834 1.915 2.167 2 4 .068 3.764-1.765 5.764-5.5 6a82.484 82.484 0 0 1-6.5-2c-.119-3.847.547-7.514 2-11h8v3z"/><path style="opacity:1" fill="#fefffe" d="M146.5 510.5v7h-7v-7h7z"/><path style="opacity:1" fill="#353535" d="M154.5 512.5h-3v-3c3.158-1.376 6.491-2.042 10-2v3c-2.888-.51-5.221.156-7 2z"/><path style="opacity:1" fill="#171717" d="M154.5 512.5h5v3h-5v-3z"/><path style="opacity:1" d="M159.5 515.5c2.667.667 2.667 1.333 0 2v-2z"/><path style="opacity:1" fill="#171717" d="M159.5 517.5v3h-8v-3h8z"/><path style="opacity:1" fill="#e87f05" d="M432.5 512.5v13c-6.755.293-13.422-.04-20-1v-12h20z"/><path style="opacity:1" fill="#f524f5" d="M222.5 512.5v20h-21v-20h21z"/><path style="opacity:1" fill="#22f520" d="M252.5 512.5v20h-20v-20h20z"/><path style="opacity:1" fill="#1211f3" d="M462.5 512.5v15h-20v-15h20z"/><path style="opacity:1" fill="#23f1f1" d="M406.5 507.5h1v2c-1.673.843-2.84 2.176-3.5 4-.5 6.325-.666 12.658-.5 19h-21v-20c7.032.33 14.032-.003 21-1a514.367 514.367 0 0 0 3-4zM496.5 507.5h1v2c-1.673.843-2.84 2.176-3.5 4-.5 6.325-.666 12.658-.5 19h-21v-20c7.032.33 14.032-.003 21-1a514.367 514.367 0 0 0 3-4z"/><path style="opacity:1" fill="#fca640" d="M412.5 524.5c6.578.96 13.245 1.293 20 1v7h-20v-8z"/><path style="opacity:1" fill="#4342fc" d="M442.5 527.5h20v5h-20v-5z"/><path style="opacity:1" fill="#fb7f7f" d="M197.5 537.5h29a802.777 802.777 0 0 0-4 5h-20v20a802.777 802.777 0 0 0-5 4v-29z"/><path style="opacity:1" fill="#7ffb7f" d="M257.5 537.5c9.672-.166 19.339 0 29 .5-1.57 1.397-2.904 2.897-4 4.5h-20v20l-5 4v-29z"/><path style="opacity:1" fill="#7f7ffb" d="M287.5 537.5c9.672-.166 19.339 0 29 .5-1.57 1.397-2.904 2.897-4 4.5h-20v20a802.777 802.777 0 0 0-5 4v-29z"/><path style="opacity:1" fill="#7ffbfb" d="M377.5 507.5h29a514.367 514.367 0 0 1-3 4 111.148 111.148 0 0 1-21 1v20c-1.645.979-2.979 2.312-4 4 9.31.998 18.643 1.332 28 1a514.367 514.367 0 0 1-3 4 111.148 111.148 0 0 1-21 1v20c-1.645.979-2.979 2.312-4 4 9.31.998 18.643 1.332 28 1a514.367 514.367 0 0 1-3 4 111.148 111.148 0 0 1-21 1v20c-1.645.979-2.979 2.312-4 4 9.31.998 18.643 1.332 28 1a514.367 514.367 0 0 1-3 4 111.148 111.148 0 0 1-21 1v20c-2.087 1.085-3.42 2.751-4 5h-1v-120z"/><path style="opacity:1" fill="#fbc27f" d="M407.5 537.5c9.672-.166 19.339 0 29 .5-1.57 1.397-2.904 2.897-4 4.5h-20v20a802.777 802.777 0 0 0-5 4v-29z"/><path style="opacity:1" fill="#7f7ffb" d="M437.5 537.5c9.672-.166 19.339 0 29 .5-1.57 1.397-2.904 2.897-4 4.5h-20v20a802.777 802.777 0 0 0-5 4v-29z"/><path style="opacity:1" d="M347.5 538.5h29v28h-29v-28z"/><path style="opacity:1" fill="#eee" d="M112.5 544.5c1.006-4.03 3.673-5.697 8-5-.423 4.051.244 7.884 2 11.5-1.503 1.921-2.169 4.088-2 6.5h-3v-5h-10c-.697-4.327.97-6.994 5-8z"/><path style="opacity:1" fill="#f4f4f4" d="M128.5 546.5h-3v-5a42.654 42.654 0 0 1 8-2c5.779.111 8.113 3.111 7 9 1.113 5.889-1.221 8.889-7 9a42.654 42.654 0 0 1-8-2v-3c3.818 1.513 7.818 2.18 12 2v-5h-9v-3z"/><path style="opacity:1" fill="#f7f7f7" d="M153.5 547.5c-.02-1.643.647-2.976 2-4a36.875 36.875 0 0 0-12-1v-3h15a23.142 23.142 0 0 1-2 8h-3z"/><path style="opacity:1" fill="#059f04" d="M346.5 447.5h1v90h-30v-1l5-4h20v-20c1.096-1.603 2.43-3.103 4-4.5-9.661-.5-19.328-.666-29-.5h-30v60h-30v-1l5-4h20v-20c1.096-1.603 2.43-3.103 4-4.5-9.661-.5-19.328-.666-29-.5h-30v-1l5-4h20v-20a802.777 802.777 0 0 1 4-5h1v-1l5-4h20v-20a802.777 802.777 0 0 1 4-5h1c-.166 9.672 0 19.339.5 29a25.14 25.14 0 0 1 4.5-4h20v-20a802.777 802.777 0 0 1 4-5h1v-1l5-4h20v-20a802.777 802.777 0 0 1 4-5z"/><path style="opacity:1" fill="#4342fc" d="M292.5 527.5h20v5h-20v-5z"/><path style="opacity:1" fill="#22f520" d="M342.5 512.5v20h-20v-20h20z"/><path style="opacity:1" fill="#1211f3" d="M312.5 512.5v15h-20v-15h20z"/><path style="opacity:1" fill="#22f520" d="M282.5 512.5v20h-20v-20h20z"/><path style="opacity:1" fill="#7ffb7f" d="M317.5 507.5c9.672-.166 19.339 0 29 .5-1.57 1.397-2.904 2.897-4 4.5h-20v20l-5 4v-29z"/><path style="opacity:1" fill="#7f7ffb" d="M316.5 507.5a802.777 802.777 0 0 0-4 5h-20v20a802.777 802.777 0 0 0-5 4v-29h29z"/><path style="opacity:1" fill="#7ffb7f" d="M257.5 507.5c9.672-.166 19.339 0 29 .5-1.57 1.397-2.904 2.897-4 4.5h-20v20a25.14 25.14 0 0 0-4.5 4c-.5-9.661-.666-19.328-.5-29z"/><path style="opacity:1" fill="#22f520" d="M342.5 482.5v20h-20v-20h20zM312.5 482.5v20h-20v-20h20z"/><path style="opacity:1" fill="#7ffb7f" d="M317.5 477.5c9.672-.166 19.339 0 29 .5-1.57 1.397-2.904 2.897-4 4.5h-20v20a25.14 25.14 0 0 0-4.5 4c-.5-9.661-.666-19.328-.5-29zM287.5 477.5h29a802.777 802.777 0 0 0-4 5h-20v20a25.14 25.14 0 0 0-4.5 4c-.5-9.661-.666-19.328-.5-29z"/><path style="opacity:1" fill="#05049f" d="M316.5 507.5h1v30c-.166 9.672 0 19.339.5 29 1.397-1.57 2.897-2.904 4.5-4h20v-20a802.777 802.777 0 0 1 4-5h1v60h-30v-1a802.777 802.777 0 0 1 5-4h20v-20c1.096-1.603 2.43-3.103 4-4.5-9.661-.5-19.328-.666-29-.5h-30v-1a802.777 802.777 0 0 1 5-4h20v-20c1.096-1.603 2.43-3.103 4-4.5-9.661-.5-19.328-.666-29-.5v-1a802.777 802.777 0 0 1 5-4h20v-20a802.777 802.777 0 0 1 4-5z"/><path style="opacity:1" fill="#7f7ffb" d="M317.5 537.5h29a802.777 802.777 0 0 0-4 5h-20v20c-1.603 1.096-3.103 2.43-4.5 4-.5-9.661-.666-19.328-.5-29z"/><path style="opacity:1" fill="#039c9c" d="M407.5 539.5v28h-1c-9.357.332-18.69-.002-28-1 1.021-1.688 2.355-3.021 4-4h21c-.166-6.342 0-12.675.5-19 .66-1.824 1.827-3.157 3.5-4z"/><path style="opacity:1" fill="#05049f" d="M466.5 507.5h1v30c-.166 9.672 0 19.339.5 29 1.397-1.57 2.897-2.904 4.5-4h20v-20a802.777 802.777 0 0 1 4-5h1v60h-30v-1a802.777 802.777 0 0 1 5-4h20v-20c1.096-1.603 2.43-3.103 4-4.5-9.661-.5-19.328-.666-29-.5h-30v-1a802.777 802.777 0 0 1 5-4h20v-20c1.096-1.603 2.43-3.103 4-4.5-9.661-.5-19.328-.666-29-.5v-1a802.777 802.777 0 0 1 5-4h20v-20a802.777 802.777 0 0 1 4-5z"/><path style="opacity:1" fill="#7f7ffb" d="M467.5 537.5h29a802.777 802.777 0 0 0-4 5h-20v20c-1.603 1.096-3.103 2.43-4.5 4-.5-9.661-.666-19.328-.5-29z"/><path style="opacity:1" d="M112.5 544.5c1.643.02 2.976-.647 4-2a13.116 13.116 0 0 1 1 7 13.116 13.116 0 0 1-7-1c1.353-1.024 2.02-2.357 2-4zM128.5 546.5v-4h9v4h-9z"/><path style="opacity:1" fill="#eee" d="m153.5 547.5-2 10h-3l2-10h3z"/><path style="opacity:1" fill="#e90505" d="M222.5 542.5v13c-6.755.293-13.422-.04-20-1v-12h20z"/><path style="opacity:1" fill="#e87f05" d="M432.5 542.5v13c-6.755.293-13.422-.04-20-1v-12h20z"/><path style="opacity:1" fill="#22f520" d="M282.5 542.5v20h-20v-20h20z"/><path style="opacity:1" fill="#1211f3" d="M312.5 542.5v15h-20v-15h20zM342.5 542.5v15h-20v-15h20zM462.5 542.5v15h-20v-15h20zM492.5 542.5v15h-20v-15h20z"/><path style="opacity:1" fill="#23f1f1" d="M406.5 537.5h1v2c-1.673.843-2.84 2.176-3.5 4-.5 6.325-.666 12.658-.5 19h-21v-20c7.032.33 14.032-.003 21-1a514.367 514.367 0 0 0 3-4z"/><path style="opacity:1" fill="#fc403f" d="M202.5 554.5c6.578.96 13.245 1.293 20 1v7h-20v-8z"/><path style="opacity:1" fill="#4342fc" d="M292.5 557.5h20v5h-20v-5zM322.5 557.5h20v5h-20v-5z"/><path style="opacity:1" fill="#fca640" d="M412.5 554.5c6.578.96 13.245 1.293 20 1v7h-20v-8z"/><path style="opacity:1" fill="#4342fc" d="M442.5 557.5h20v5h-20v-5zM472.5 557.5h20v5h-20v-5z"/><path style="opacity:1" fill="#fb7f7f" d="M197.5 567.5c9.672-.166 19.339 0 29 .5-1.57 1.397-2.904 2.897-4 4.5h-20v20a802.777 802.777 0 0 0-5 4v-29z"/><path style="opacity:1" fill="#fbc27f" d="M257.5 567.5h29a802.777 802.777 0 0 0-4 5h-20v20a802.777 802.777 0 0 0-5 4v-29z"/><path style="opacity:1" fill="#fbfb7f" d="M287.5 567.5h29a802.777 802.777 0 0 0-4 5h-20v20l-5 4v-29z"/><path style="opacity:1" fill="#7f7ffb" d="M317.5 567.5c9.672-.166 19.339 0 29 .5-1.57 1.397-2.904 2.897-4 4.5h-20v20a802.777 802.777 0 0 0-5 4v-29z"/><path style="opacity:1" fill="#fb81fb" d="M407.5 567.5h29a802.777 802.777 0 0 0-4 5h-21v20c-1 1.667-2.333 3-4 4v-29z"/><path style="opacity:1" fill="#7f7ffb" d="M467.5 567.5c9.672-.166 19.339 0 29 .5-1.57 1.397-2.904 2.897-4 4.5h-20v20a802.777 802.777 0 0 0-5 4v-29z"/><path style="opacity:1" d="M347.5 568.5h29v28h-29v-28z"/><path style="opacity:1" fill="#9f0504" d="M226.5 537.5h1c-.166 9.672 0 19.339.5 29 1.397-1.57 2.897-2.904 4.5-4h20v-20a802.777 802.777 0 0 1 4-5h1v60h-60v-1a802.777 802.777 0 0 1 5-4h20v-20c1.096-1.603 2.43-3.103 4-4.5-9.661-.5-19.328-.666-29-.5v-1a802.777 802.777 0 0 1 5-4h20v-20a802.777 802.777 0 0 1 4-5z"/><path style="opacity:1" fill="#fb7f7f" d="M252.5 572.5h-20v20c-1.603 1.096-3.103 2.43-4.5 4-.5-9.661-.666-19.328-.5-29 9.672-.166 19.339 0 29 .5-1.57 1.397-2.904 2.897-4 4.5z"/><path style="opacity:1" fill="#fc403f" d="M232.5 554.5c6.578.96 13.245 1.293 20 1v7h-20v-8z"/><path style="opacity:1" fill="#e90505" d="M252.5 542.5v13c-6.755.293-13.422-.04-20-1v-12h20z"/><path style="opacity:1" fill="#fb7f7f" d="M227.5 537.5h29a802.777 802.777 0 0 0-4 5h-20v20c-1.603 1.096-3.103 2.43-4.5 4-.5-9.661-.666-19.328-.5-29z"/><path style="opacity:1" fill="#039c9c" d="M407.5 569.5v28h-1c-9.357.332-18.69-.002-28-1 1.021-1.688 2.355-3.021 4-4h21c-.166-6.342 0-12.675.5-19 .66-1.824 1.827-3.157 3.5-4z"/><path style="opacity:1" fill="#e90505" d="M222.5 572.5v13c-6.755.293-13.422-.04-20-1v-12h20zM252.5 572.5v13c-6.755.293-13.422-.04-20-1v-12h20z"/><path style="opacity:1" fill="#e87f05" d="M282.5 572.5v13c-6.755.293-13.422-.04-20-1v-12h20z"/><path style="opacity:1" fill="#f5f521" d="M312.5 572.5v20h-20v-20h20z"/><path style="opacity:1" fill="#1211f3" d="M342.5 572.5v15h-20v-15h20z"/><path style="opacity:1" fill="#f524f5" d="M432.5 572.5v20h-21v-20h21z"/><path style="opacity:1" fill="#1211f3" d="M492.5 572.5v15h-20v-15h20z"/><path style="opacity:1" fill="#23f1f1" d="M406.5 567.5h1v2c-1.673.843-2.84 2.176-3.5 4-.5 6.325-.666 12.658-.5 19h-21v-20c7.032.33 14.032-.003 21-1a514.367 514.367 0 0 0 3-4z"/><path style="opacity:1" fill="#fc403f" d="M202.5 584.5c6.578.96 13.245 1.293 20 1v7h-20v-8zM232.5 584.5c6.578.96 13.245 1.293 20 1v7h-20v-8z"/><path style="opacity:1" fill="#fca640" d="M262.5 584.5c6.578.96 13.245 1.293 20 1v7h-20v-8z"/><path style="opacity:1" fill="#4342fc" d="M322.5 587.5h20v5h-20v-5zM472.5 587.5h20v5h-20v-5z"/><path style="opacity:1" fill="#fbc27f" d="M197.5 597.5h29a802.777 802.777 0 0 0-4 5h-20v20a802.777 802.777 0 0 0-5 4v-29z"/><path style="opacity:1" fill="#fbfb7f" d="M287.5 597.5c9.672-.166 19.339 0 29 .5-1.57 1.397-2.904 2.897-4 4.5h-20v20l-5 4v-29z"/><path style="opacity:1" fill="#454645" d="M407.5 598.5v-1h30v30h-30v-1h29v-28h-29z"/><path style="opacity:1" fill="#fb81fb" d="M437.5 597.5c9.672-.166 19.339 0 29 .5-1.57 1.397-2.904 2.897-4 4.5h-21v20c-1 1.667-2.333 3-4 4v-29z"/><path style="opacity:1" d="M407.5 598.5h29v28h-29v-28z"/><path style="opacity:1" fill="#9e5704" d="M286.5 567.5h1v60a2026.42 2026.42 0 0 1-90-1 802.777 802.777 0 0 1 5-4h20v-20a802.777 802.777 0 0 1 4-5h1c-.166 9.672 0 19.339.5 29 1.397-1.57 2.897-2.904 4.5-4h20v-20a802.777 802.777 0 0 1 4-5h1v-1a802.777 802.777 0 0 1 5-4h20v-20a802.777 802.777 0 0 1 4-5z"/><path style="opacity:1" fill="#fbc27f" d="M257.5 597.5c9.672-.166 19.339 0 29 .5-1.57 1.397-2.904 2.897-4 4.5h-20v20c-1.603 1.096-3.103 2.43-4.5 4-.5-9.661-.666-19.328-.5-29zM227.5 597.5h29a802.777 802.777 0 0 0-4 5h-20v20c-1.603 1.096-3.103 2.43-4.5 4-.5-9.661-.666-19.328-.5-29z"/><path style="opacity:1" fill="#9e9e05" d="M316.5 567.5h1v30c-.166 9.672 0 19.339.5 29a25.14 25.14 0 0 1 4.5-4h20v-20a802.777 802.777 0 0 1 4-5h1c-.166 9.672 0 19.339.5 29a25.14 25.14 0 0 1 4.5-4h20v-20a802.777 802.777 0 0 1 4-5h1v30h-90v-1l5-4h20v-20c1.096-1.603 2.43-3.103 4-4.5-9.661-.5-19.328-.666-29-.5v-1l5-4h20v-20a802.777 802.777 0 0 1 4-5z"/><path style="opacity:1" fill="#fbfb7f" d="M347.5 597.5h29a802.777 802.777 0 0 0-4 5h-20v20a25.14 25.14 0 0 0-4.5 4c-.5-9.661-.666-19.328-.5-29zM317.5 597.5h29a802.777 802.777 0 0 0-4 5h-20v20a25.14 25.14 0 0 0-4.5 4c-.5-9.661-.666-19.328-.5-29z"/><path style="opacity:1" fill="#039c9c" d="M407.5 599.5v28h-29c.58-2.249 1.913-3.915 4-5h21c-.166-6.342 0-12.675.5-19 .66-1.824 1.827-3.157 3.5-4z"/><path style="opacity:1" fill="#9f059f" d="M436.5 567.5h1c-.166 9.672 0 19.339.5 29a19.552 19.552 0 0 0 3.5-4h21v-20a802.777 802.777 0 0 1 4-5h1v30c-.166 9.672 0 19.339.5 29a19.552 19.552 0 0 0 3.5-4h21v-20a802.777 802.777 0 0 1 4-5h1v30h-60v-1c1.667-1 3-2.333 4-4h21v-20c1.096-1.603 2.43-3.103 4-4.5-9.661-.5-19.328-.666-29-.5h-30v-1c1.667-1 3-2.333 4-4h21v-20a802.777 802.777 0 0 1 4-5z"/><path style="opacity:1" fill="#fb81fb" d="M467.5 597.5h29a802.777 802.777 0 0 0-4 5h-21v20a19.552 19.552 0 0 1-3.5 4c-.5-9.661-.666-19.328-.5-29z"/><path style="opacity:1" fill="#f524f5" d="M462.5 572.5v20h-21v-20h21z"/><path style="opacity:1" fill="#fb81fb" d="M437.5 567.5h29a802.777 802.777 0 0 0-4 5h-21v20a19.552 19.552 0 0 1-3.5 4c-.5-9.661-.666-19.328-.5-29z"/><path style="opacity:1" fill="#e87f05" d="M222.5 602.5v13c-6.755.293-13.422-.04-20-1v-12h20zM252.5 602.5v13c-6.755.293-13.422-.04-20-1v-12h20zM282.5 602.5v13c-6.755.293-13.422-.04-20-1v-12h20z"/><path style="opacity:1" fill="#f5f521" d="M312.5 602.5v20h-20v-20h20zM342.5 602.5v20h-20v-20h20zM372.5 602.5v20h-20v-20h20z"/><path style="opacity:1" fill="#f524f5" d="M462.5 602.5v20h-21v-20h21zM492.5 602.5v20h-21v-20h21z"/><path style="opacity:1" fill="#23f1f1" d="M406.5 597.5h1v2c-1.673.843-2.84 2.176-3.5 4-.5 6.325-.666 12.658-.5 19h-21v-20c7.032.33 14.032-.003 21-1a514.367 514.367 0 0 0 3-4z"/><path style="opacity:1" fill="#fca640" d="M202.5 614.5c6.578.96 13.245 1.293 20 1v7h-20v-8zM232.5 614.5c6.578.96 13.245 1.293 20 1v7h-20v-8zM262.5 614.5c6.578.96 13.245 1.293 20 1v7h-20v-8z"/></svg>